<svg height="512" width="443" xmlns="http://www.w3.org/2000/svg"><path d="m221.7328491 0-221.7328491 128v256l222.2363892 128 220.7240601-127.49646v-257.00708zm-172.6555481 358.4714355v-201.8412933l172.5683594-101.5429726 173.2460938 98.8398438v202.9203949l-172.5961915 102.1142616zm88.5115509-50.0765686v71.8737793l-62.6321945-34.2255859v-74.098999zm11.3145294-110.9120636 55.2918701-32.2536011-62.6322021-36.9630127-55.675293 32.9417114zm74.8012085-22.3285522-56.0150757 33.1427002 57.0129395 32.819458 55.5505981-32.5879517zm-10.4873199 85.076004-56.1191406-32.3048706v66.7792358l56.1191406 30.6665649zm82.4013824-60.7158355 61.4734497-36.0625-56.7225342-33.4744263-61.6060791 36.4508057zm-14.7566528-79.4619751-62.6339111-36.9647217-61.6060791 36.4508057 62.6339111 36.4508057zm-205.9053421 60.5883941v67.1740112l62.6321945 34.2255859v-65.34552zm229.738411 130.3425904v72.0933838l63.3087158-37.5476685v-73.3600464zm0-90.9471436v64.7205505l63.3087158-37.4541931v-64.4052124zm-69.4771576 40.7574463v64.8900146l56.1191254-33.2043457v-64.6068726zm0 89.8230591v73.295166l56.1191254-33.2042847v-71.3599243zm-22.0006409-.2103272-56.1191406-31.5726318v74.098999l56.1191406 30.6665039z"/></svg>